<svg xmlns="http://www.w3.org/2000/svg" xmlns:xlink="http://www.w3.org/1999/xlink" preserveAspectRatio="xMidYMid" width="29" height="29" viewBox="0 0 29 29">
  <defs>
    <style>

      .cls-2 {
        fill: #ffffff;
      }
    </style>
  </defs>
  <path d="M28.737,28.737 C28.352,29.123 27.726,29.123 27.341,28.737 C27.341,28.737 21.474,22.870 21.474,22.870 C16.359,27.269 8.645,27.056 3.796,22.207 C-1.288,17.123 -1.288,8.880 3.796,3.796 C8.880,-1.288 17.123,-1.288 22.207,3.796 C27.056,8.645 27.269,16.359 22.870,21.474 C22.870,21.474 28.737,27.341 28.737,27.341 C29.123,27.726 29.123,28.352 28.737,28.737 ZM20.793,5.251 C16.501,0.959 9.542,0.959 5.251,5.251 C0.959,9.542 0.959,16.501 5.251,20.793 C9.542,25.085 16.501,25.085 20.793,20.793 C25.085,16.501 25.085,9.542 20.793,5.251 ZM18.031,14.031 C18.031,14.031 14.031,14.031 14.031,14.031 C14.031,14.031 14.031,18.031 14.031,18.031 C14.031,18.584 13.584,19.031 13.031,19.031 C12.479,19.031 12.031,18.584 12.031,18.031 C12.031,18.031 12.031,14.031 12.031,14.031 C12.031,14.031 8.031,14.031 8.031,14.031 C7.479,14.031 7.031,13.584 7.031,13.031 C7.031,12.479 7.479,12.031 8.031,12.031 C8.031,12.031 12.031,12.031 12.031,12.031 C12.031,12.031 12.031,8.031 12.031,8.031 C12.031,7.479 12.479,7.031 13.031,7.031 C13.584,7.031 14.031,7.479 14.031,8.031 C14.031,8.031 14.031,12.031 14.031,12.031 C14.031,12.031 18.031,12.031 18.031,12.031 C18.584,12.031 19.031,12.479 19.031,13.031 C19.031,13.584 18.584,14.031 18.031,14.031 Z" id="path-1" class="cls-2" fill-rule="evenodd"/>
</svg>
